<?xml version="1.0" standalone="no"?><!DOCTYPE svg PUBLIC "-//W3C//DTD SVG 1.1//EN" "http://www.w3.org/Graphics/SVG/1.1/DTD/svg11.dtd"><svg t="1705417434035" class="icon" viewBox="0 0 1505 1024" version="1.1" xmlns="http://www.w3.org/2000/svg" p-id="4394" xmlns:xlink="http://www.w3.org/1999/xlink" width="293.9453125" height="200"><path d="M1029.330824 104.673882c-7.213176 0-12.107294 0.873412-17.189648 2.070589v0.813176h0.880942c3.388235 6.528 9.155765 11.294118 13.424941 17.129412 3.388235 6.716235 6.272 13.424941 9.660235 20.080941l0.880941-0.941176c5.895529-4.141176 8.786824-10.797176 8.786824-20.894118-2.514824-2.951529-2.891294-5.903059-5.022118-8.786824-2.507294-4.201412-7.905882-6.272-11.294117-9.6l-0.128 0.128zM362.036706 932.532706h-58.164706a3190.836706 3190.836706 0 0 0-16.941176-276.705882h-0.496942l-88.470588 276.705882h-44.235294L65.882353 655.826824h-0.624941a4573.613176 4573.613176 0 0 0-12.235294 276.705882H0c3.448471-123.361882 12.047059-239.058824 25.728-346.985412H97.882353l83.764706 254.998588h0.50447l84.517647-254.998588h68.705883c15.179294 126.433882 24.094118 242.198588 26.849882 346.985412h-0.188235zM614.083765 676.532706c-23.717647 128.308706-54.964706 221.673412-93.613177 279.838118-30.245647 44.928-63.375059 67.328-99.328 67.328-9.6 0-21.330824-2.883765-35.508706-8.658824v-30.998588c6.896941 1.069176 15.058824 1.633882 24.214589 1.633882 16.820706 0 30.305882-4.705882 40.598588-13.929412 12.363294-11.294118 18.507294-23.966118 18.507294-37.963294 0-9.720471-4.826353-29.485176-14.426353-59.226353l-63.623529-198.023529H448l45.613176 148.073412c10.292706 33.633882 14.622118 57.103059 12.867765 70.467764 25.095529-66.763294 42.541176-139.738353 52.389647-218.541176h55.213177z" fill="#006794" p-id="4395"></path><path d="M1387.422118 932.532706H1222.4V585.547294h55.529412v304.316235h109.492706zM1036.8 580.276706c90.164706 0 135.213176 57.479529 135.213176 172.303059 0 62.426353-13.485176 109.613176-40.658823 141.364706-4.894118 5.767529-10.352941 10.917647-16 15.683764l63.751529 31.375059h0.188236l-22.588236 39.024941-83.139764-48.436706c-13.741176 4.073412-28.920471 6.144-45.485177 6.144-44.303059 0-77.364706-12.860235-99.328-38.588235-24.094118-28.483765-36.013176-73.283765-36.013176-134.272 0-62.057412 13.552941-108.988235 40.530823-140.860235 24.847059-29.176471 59.354353-43.738353 103.529412-43.738353z m-5.707294 42.729412c-53.082353 0-79.691294 43.738353-79.691294 131.139764 0 49.942588 7.032471 86.339765 21.150117 108.928l-0.128 0.308706c13.048471 20.894118 33.445647 31.375059 61.364706 31.375059 53.082353 0 79.683765-44.175059 79.683765-132.269176 0-49.377882-7.024941-85.391059-21.082353-108.107295-12.988235-20.894118-33.505882-31.375059-61.296941-31.375058zM868.517647 836.404706c0 29.492706-10.789647 53.707294-32.376471 72.530823-21.586824 18.823529-50.386824 28.235294-86.836705 28.235295-34.070588 0-66.763294-10.789647-98.703059-32.308706l14.870588-29.869177c27.482353 13.801412 52.269176 20.577882 74.669176 20.577883 20.833882 0 37.210353-4.577882 49.129412-13.801412a47.307294 47.307294 0 0 0 18.82353-38.588236c0-20.705882-14.433882-38.272-40.658824-53.022117-24.342588-13.364706-72.975059-41.223529-72.975059-41.22353-26.473412-19.260235-39.649882-39.905882-39.649882-73.84847 0-28.235294 9.848471-50.823529 29.485176-68.080941 19.764706-17.438118 45.176471-26.036706 76.55153-26.036706 32.128 0 61.492706 8.530824 87.845647 25.728l-13.364706 29.861647a171.045647 171.045647 0 0 0-66.763294-14.426353c-17.754353 0-31.495529 4.261647-41.035294 12.92047a42.977882 42.977882 0 0 0-15.563294 32.880942c0 20.577882 14.682353 38.272 41.788235 53.330823 24.658824 13.492706 74.480941 42.044235 74.480941 42.044235 27.166118 19.132235 40.658824 39.529412 40.658824 73.283765l-0.376471-0.188235z" fill="#E69402" p-id="4396"></path><path d="M1457.189647 469.217882c-33.566118-0.873412-59.602824 2.514824-81.377882 11.798589-6.272 2.507294-16.316235 2.507294-17.189647 10.480941 3.448471 3.320471 3.952941 8.779294 6.896941 13.424941 5.022118 8.410353 13.680941 19.636706 21.714823 25.539765 8.779294 6.896941 17.566118 13.552941 26.789647 19.44847 16.316235 10.036706 34.823529 16 50.82353 26.104471 9.095529 5.895529 18.386824 13.364706 27.610353 19.636706 4.577882 3.139765 7.529412 8.786824 13.424941 10.789647v-1.249883c-2.883765-3.764706-3.764706-9.223529-6.588235-13.43247-4.201412-4.201412-8.410353-7.966118-12.55153-12.107294a202.224941 202.224941 0 0 0-43.602823-42.352941c-13.432471-9.163294-42.797176-21.963294-48.316236-37.330824l-0.813176-0.880941c9.155765-0.813176 20.073412-4.141176 28.860235-6.648471 14.245647-3.764706 27.294118-2.951529 42.036706-6.656a361.637647 361.637647 0 0 0 20.080941-5.895529v-3.764706c-7.529412-7.529412-13.176471-17.754353-20.954353-24.786824a556.363294 556.363294 0 0 0-69.270588-51.636705c-13.176471-8.410353-29.869176-13.801412-43.738353-20.954353-5.014588-2.514824-13.424941-3.764706-16.308706-7.973647-7.529412-9.155765-11.926588-21.330824-17.257411-32.248471a1109.955765 1109.955765 0 0 1-34.319059-72.975059c-7.529412-16.436706-12.114824-32.813176-21.338353-47.872-43.294118-71.341176-90.164706-114.575059-162.258824-156.860235-15.495529-8.786824-34.070588-12.551529-53.707294-17.197177-10.480941-0.496941-20.954353-1.249882-31.375059-1.694117-6.896941-2.944-13.552941-10.917647-19.44847-14.742589-23.845647-15.058824-85.586824-47.683765-103.152941-4.517647-11.294118 27.233882 16.752941 54.083765 26.480941 67.892706 7.213176 9.6 16.308706 20.577882 21.330823 31.36753 2.951529 7.280941 3.764706 14.750118 6.716236 22.339764 6.648471 18.447059 12.988235 39.024941 21.767529 56.282353 4.585412 8.786824 9.6 18.010353 15.503059 25.916236 3.388235 4.577882 9.155765 6.708706 10.473412 14.238117-5.895529 8.538353-6.272 20.961882-9.660236 31.375059-15.058824 47.495529-9.163294 106.224941 12.175059 141.176471 6.708706 10.413176 22.708706 33.505882 44.107294 24.658823 18.823529-7.529412 14.682353-31.375059 20.080941-52.389647 1.249882-5.022118 0.436706-8.350118 3.011765-11.738353v0.941177c5.895529 11.798588 11.791059 23.032471 17.189647 34.823529 12.928 20.585412 35.516235 41.916235 54.4 56.161882 10.036706 7.529412 18.010353 20.577882 30.554353 25.22353v-1.257412h-0.941176c-2.695529-3.636706-6.272-5.398588-9.660236-8.342588a216.154353 216.154353 0 0 1-21.963294-25.103059 549.647059 549.647059 0 0 1-46.870588-76.423529c-6.896941-13.176471-12.672-27.354353-18.191059-40.342589-2.514824-5.022118-2.514824-12.551529-6.716235-15.058823-6.272 9.163294-15.495529 17.129412-20.080941 28.423529-7.966118 18.070588-8.779294 40.282353-11.791059 63.375059-1.694118 0.436706-0.880941 0-1.694118 0.873412-13.432471-3.260235-18.010353-17.189647-23.03247-28.860235-12.544-29.801412-14.614588-77.680941-3.764706-112 2.951529-8.786824 15.503059-36.517647 10.480941-44.928-2.635294-7.966118-10.917647-12.544-15.49553-19.011765a155.482353 155.482353 0 0 1-15.058823-26.789647c-10.044235-23.469176-15.058824-49.445647-25.976471-72.907294-5.022118-10.857412-13.808941-22.211765-20.961882-32.188236-7.966118-11.294118-16.752941-19.267765-23.085176-32.63247-2.070588-4.577882-5.022118-12.167529-1.694118-17.189647 0.873412-3.388235 2.635294-4.705882 5.895529-5.647059 5.519059-4.517647 21.022118 1.377882 26.480941 3.892706 15.495529 6.272 28.544 12.167529 41.532236 20.954353 5.903059 4.141176 12.235294 12.107294 19.764706 14.177882h8.786823c13.424941 2.951529 28.551529 0.880941 41.09553 4.585412 22.279529 7.152941 42.352941 17.566118 60.363294 28.860235a373.519059 373.519059 0 0 1 130.823529 143.435294c5.022118 9.660235 7.213176 18.507294 11.798588 28.55153 8.779294 20.705882 19.636706 41.6 28.544 61.613176 8.786824 19.764706 17.257412 39.905882 29.869177 56.282353 6.272 8.786824 31.495529 13.364706 42.789647 17.942588 8.350118 3.764706 21.338353 7.220706 28.867765 11.798589 14.426353 8.786824 28.483765 18.823529 42.036705 28.483764 6.904471 4.773647 27.798588 15.247059 29.048471 23.717647z" fill="#006794" p-id="4397"></path></svg>